<svg viewBox="0 0 180 140" xmlns="http://www.w3.org/2000/svg">
<g><line x1="70" y1="85" x2="38" y2="108" stroke="#0e7490" stroke-width="7" stroke-linecap="round"/><circle cx="38" cy="108" r="4" fill="#06b6d4"/></g>
<g><line x1="70" y1="85" x2="16" y2="116" stroke="#0e7490" stroke-width="7" stroke-linecap="round"/><circle cx="16" cy="116" r="4" fill="#06b6d4"/></g>
<g><line x1="70" y1="85" x2="-6" y2="124" stroke="#0e7490" stroke-width="7" stroke-linecap="round"/><circle cx="-6" cy="124" r="4" fill="#06b6d4"/></g>
<g><line x1="110" y1="85" x2="142" y2="108" stroke="#0e7490" stroke-width="7" stroke-linecap="round"/><circle cx="142" cy="108" r="4" fill="#06b6d4"/></g>
<g><line x1="110" y1="85" x2="164" y2="116" stroke="#0e7490" stroke-width="7" stroke-linecap="round"/><circle cx="164" cy="116" r="4" fill="#06b6d4"/></g>
<g><line x1="110" y1="85" x2="186" y2="124" stroke="#0e7490" stroke-width="7" stroke-linecap="round"/><circle cx="186" cy="124" r="4" fill="#06b6d4"/></g>
<ellipse cx="90" cy="80" rx="58" ry="42" fill="#06b6d4" stroke="#0e7490" stroke-width="2.5"/>
<ellipse cx="90" cy="80" rx="45" ry="30" fill="#67e8f9" opacity="0.45"/>
<path d="M55 75 Q90 60 125 75" stroke="#0e7490" stroke-width="1.5" fill="none" opacity="0.6"/>
<path d="M60 88 Q90 75 120 88" stroke="#0e7490" stroke-width="1.5" fill="none" opacity="0.6"/>
<line x1="40" y1="72" x2="14" y2="55" stroke="#0e7490" stroke-width="8" stroke-linecap="round"/>
<ellipse cx="8" cy="50" rx="14" ry="10" fill="#06b6d4" stroke="#0e7490" stroke-width="2" transform="rotate(-30 8 50)"/>
<path d="M2 44 L14 56" stroke="#0e7490" stroke-width="3" stroke-linecap="round"/>
<line x1="140" y1="72" x2="166" y2="55" stroke="#0e7490" stroke-width="8" stroke-linecap="round"/>
<ellipse cx="172" cy="50" rx="14" ry="10" fill="#06b6d4" stroke="#0e7490" stroke-width="2" transform="rotate(30 172 50)"/>
<path d="M178 44 L166 56" stroke="#0e7490" stroke-width="3" stroke-linecap="round"/>
<line x1="72" y1="42" x2="68" y2="28" stroke="#0e7490" stroke-width="5" stroke-linecap="round"/>
<line x1="108" y1="42" x2="112" y2="28" stroke="#0e7490" stroke-width="5" stroke-linecap="round"/>
<circle cx="68" cy="24" r="14" fill="white" stroke="#0e7490" stroke-width="2"/>
<circle cx="71" cy="24" r="9" fill="#1a1a2e"/>
<circle cx="74" cy="20" r="3" fill="white"/>
<circle cx="112" cy="24" r="14" fill="#06b6d4" stroke="#0e7490" stroke-width="2"/>
<path d="M102 24 Q112 16 122 24" stroke="#0e7490" stroke-width="2.5" fill="none" stroke-linecap="round"/>
<path d="M76 100 Q90 112 104 100" stroke="#0e7490" stroke-width="3" fill="none" stroke-linecap="round"/>
<ellipse cx="60" cy="88" rx="9" ry="6" fill="#a5f3fc" opacity="0.6"/>
<ellipse cx="120" cy="88" rx="9" ry="6" fill="#a5f3fc" opacity="0.6"/>
<circle cx="55" cy="58" r="5" fill="none" stroke="rgba(255,255,255,0.55)" stroke-width="1.5"/>
<circle cx="62" cy="46" r="3" fill="none" stroke="rgba(255,255,255,0.55)" stroke-width="1"/>
</svg>
