<svg viewBox="0 0 180 230" xmlns="http://www.w3.org/2000/svg">
<defs>
<radialGradient id="lb" cx="50%" cy="35%" r="70%"><stop offset="0" stop-color="#fff0fb" stop-opacity=".95"/><stop offset=".5" stop-color="#f6a8e6" stop-opacity=".85"/><stop offset="1" stop-color="#b24fd6" stop-opacity=".75"/></radialGradient>
<radialGradient id="lg" cx="50%" cy="50%" r="50%"><stop offset="0" stop-color="#ff8de0" stop-opacity=".55"/><stop offset="1" stop-color="#ff8de0" stop-opacity="0"/></radialGradient>
<linearGradient id="lt" x1="0" y1="0" x2="0" y2="1"><stop offset="0" stop-color="#f58be0" stop-opacity=".9"/><stop offset="1" stop-color="#9b6cff" stop-opacity=".1"/></linearGradient>
<radialGradient id="le" cx="38%" cy="32%" r="70%"><stop offset="0" stop-color="#fff"/><stop offset="1" stop-color="#ead5f5"/></radialGradient>
</defs>
<circle cx="90" cy="76" r="88" fill="url(#lg)"/>
<g fill="none" stroke-linecap="round">
<path d="M34 120c-12 30 6 56-6 86" stroke="url(#lt)" stroke-width="6"/>
<path d="M54 124c-8 32 8 52 0 94" stroke="url(#lt)" stroke-width="5"/>
<path d="M76 126c0 30 12 46 4 96" stroke="url(#lt)" stroke-width="7"/>
<path d="M102 126c0 30-10 46-2 96" stroke="url(#lt)" stroke-width="5"/>
<path d="M126 124c8 32-8 52 2 90" stroke="url(#lt)" stroke-width="6"/>
<path d="M146 120c12 30-6 56 6 84" stroke="url(#lt)" stroke-width="5"/>
<path d="M66 118c-4 20 6 30 0 50M114 118c4 20-6 30 0 50" stroke="#ffd0f4" stroke-width="9" opacity=".55"/>
</g>
<path d="M10 100C10 36 50 12 90 12s80 24 80 88c0 8-6 16-14 16-8 0-10-10-20-10s-12 12-24 12-14-12-26-12-14 12-26 12-14-12-24-12-10 10-18 10c-8 0-12-8-12-16z" fill="url(#lb)" stroke="#d777e8" stroke-width="2"/>
<path d="M28 78C34 40 62 24 90 24" fill="none" stroke="#fff" stroke-width="6" stroke-linecap="round" opacity=".7"/>
<g fill="#fff" opacity=".7"><circle cx="58" cy="46" r="3"/><circle cx="112" cy="40" r="2.5"/><circle cx="136" cy="62" r="3.5"/><circle cx="46" cy="92" r="2"/></g>
<g stroke="#e29ae6" stroke-width="1.5" fill="none" opacity=".6"><path d="M90 14v70M62 20 70 84M118 20 110 84M38 36 48 84M142 36 132 84"/></g>
<circle cx="64" cy="76" r="15" fill="url(#le)" stroke="#b24fd6" stroke-width="2"/><circle cx="116" cy="76" r="15" fill="url(#le)" stroke="#b24fd6" stroke-width="2"/>
<circle cx="67" cy="77" r="9.5" fill="#1d1230"/><circle cx="119" cy="77" r="9.5" fill="#1d1230"/>
<circle cx="71" cy="72" r="4" fill="#fff"/><circle cx="123" cy="72" r="4" fill="#fff"/><circle cx="65" cy="82" r="1.8" fill="#fff" opacity=".8"/><circle cx="117" cy="82" r="1.8" fill="#fff" opacity=".8"/>
<path d="M78 94q12 9 24 0" fill="none" stroke="#a23fb8" stroke-width="2.8" stroke-linecap="round"/>
<ellipse cx="48" cy="92" rx="9" ry="5.500" fill="#ff7ab8" opacity=".45"/><ellipse cx="132" cy="92" rx="9" ry="5.500" fill="#ff7ab8" opacity=".45"/>
</svg>
